:SAMPLES-PER-SECOND 30
:FULLY-SPECIFIED
:DEGREES
409
root  19.9352 26.8222 -1.88335 -79.886 68.0713 50.3989
RightUpLeg  69.4211 58.4115 -46.3995
RightLeg  72.3355 6.04924 19.7822
RightFoot  -37.0768 -2.40592 -9.40058
RightToes  3.49245e-010 0 -3.6325e-017
Spine  -36.8004 -21.4284 42.2422
Spine1  -179.245 46.7154 -23.9549
HEad  -22.3155 7.89173 -9.38421
LeftShoulder1  -0.257642 0.473352 19.3648
LeftArm  -88.544 -41.4354 3.82753
LeftForeArm  -20.8672 -43.5778 -11.8912
LeftHand  -0.325245 11.2834 -4.96892
RightShoulder  -0.29067 -0.927759 -22.8618
RightArm  -76.5339 27.42 -3.17052
RightForeArm  -39.6235 52.8141 17.3119
RightHand  -0.742206 11.2644 -5.57412
LeftUpLeg  92.5067 -24.8158 32.7363
LeftLeg  58.9039 -10.4003 -17.4508
LeftFoot  -19.5423 0.52263 5.63828
LeftToes  -5.36635e-011 -6.70219e-011 5.24975e-011
410
root  20.6174 26.818 -1.84811 -84.5559 69.0703 45.2471
RightUpLeg  68.6932 58.9388 -50.1419
RightLeg  71.2398 7.36605 22.2832
RightFoot  -36.0226 -2.78136 -11.545
RightToes  3.49245e-010 0 -3.6325e-017
Spine  -38.1947 -17.0702 29.0754
Spine1  -168.895 39.1118 -11.8198
HEad  -22.5232 7.8686 -8.78178
LeftShoulder1  -0.248531 0.504487 19.1357
LeftArm  -87.4919 -42.1264 3.46783
LeftForeArm  -20.6045 -43.453 -11.8286
LeftHand  -0.36029 10.7151 -6.27469
RightShoulder  -0.302732 -0.648257 -22.0291
RightArm  -75.1602 27.4887 -3.45492
RightForeArm  -40.2581 53.0885 17.5062
RightHand  -0.756948 11.2298 -5.68743
LeftUpLeg  92.6331 -26.1131 30.9319
LeftLeg  59.9011 -9.39463 -16.4776
LeftFoot  -21.2977 0.709092 6.65361
LeftToes  -5.36635e-011 -6.70219e-011 5.24975e-011
411
root  21.5109 26.8063 -2.16486 -86.4909 68.2019 42.3082
RightUpLeg  67.8188 59.6397 -50.7291
RightLeg  70.4241 8.17499 23.4891
RightFoot  -35.4073 -2.72869 -11.6357
RightToes  3.49245e-010 0 -3.6325e-017
Spine  -36.1575 -15.2745 24.2589
Spine1  -169.44 35.7041 -9.29526
HEad  -24.1917 7.87749 -9.57289
LeftShoulder1  -0.308045 -0.193608 19.1751
LeftArm  -86.6001 -41.9841 3.14978
LeftForeArm  -20.6568 -43.2999 -11.7712
LeftHand  -0.324085 10.2557 -6.08946
RightShoulder  -0.303055 -0.556498 -21.6626
RightArm  -74.0162 27.5001 -3.2822
RightForeArm  -39.7053 53.0967 17.4915
RightHand  -0.622713 11.4215 -4.70894
LeftUpLeg  93.8165 -25.3683 29.8519
LeftLeg  60.6667 -7.91425 -14.3475
LeftFoot  -23.7407 0.851306 6.54406
LeftToes  -5.36635e-011 -6.70219e-011 5.24975e-011
412
root  22.2706 26.7449 -2.66974 -89.5122 66.7018 37.2729
RightUpLeg  73.5538 57.6433 -42.2235
RightLeg  69.6035 7.43143 20.5292
RightFoot  -35.9248 -2.11109 -8.53055
RightToes  3.49245e-010 0 -3.6325e-017
Spine  -36.4414 -12.9905 23.6252
Spine1  -169.465 33.499 -8.51106
HEad  -25.9146 7.83658 -9.17311
LeftShoulder1  -0.330597 -0.290951 19.6196
LeftArm  -85.8385 -41.9374 3.03385
LeftForeArm  -20.7933 -43.5365 -11.871
LeftHand  -0.32178 10.7874 -5.41739
RightShoulder  -0.290355 -0.556417 -21.1641
RightArm  -73.5978 27.5361 -3.25595
RightForeArm  -40.4475 52.9229 17.4103
RightHand  -0.616028 11.1363 -4.72473
LeftUpLeg  93.5661 -24.397 29.6063
LeftLeg  61.9243 -6.22107 -11.9209
LeftFoot  -26.3479 0.824261 5.04603
LeftToes  -5.36635e-011 -6.70219e-011 5.24975e-011
413
root  23.4021 26.5287 -2.7994 -88.9443 66.1769 35.7168
RightUpLeg  71.5325 58.6081 -44.1219
RightLeg  69.2838 8.3157 22.4589
RightFoot  -36.2833 -1.85569 -7.30103
RightToes  3.49245e-010 0 -3.6325e-017
Spine  -31.3671 -9.68611 16.1124
Spine1  -173.827 27.0158 -5.50729
HEad  -27.6063 7.798 -9.51742
LeftShoulder1  -0.34897 -0.547219 19.4815
LeftArm  -85.1272 -42.505 3.66746
LeftForeArm  -21.69 -43.622 -11.9513
LeftHand  -0.353027 11.8118 -4.98111
RightShoulder  -0.273821 -0.629944 -20.8397
RightArm  -73.2506 27.2656 -3.07504
RightForeArm  -39.8668 52.4373 17.0924
RightHand  -0.413412 10.7404 -3.40106
LeftUpLeg  93.2113 -24.5909 30.2503
LeftLeg  63.6347 -6.15887 -12.7177
LeftFoot  -29.3014 0.766913 3.74503
LeftToes  -5.36635e-011 -6.70219e-011 5.24975e-011
414
root  24.1108 26.2334 -2.80298 -87.7517 66.7576 33.2914
RightUpLeg  74.9046 56.2388 -39.8852
RightLeg  69.0723 7.38778 19.8697
RightFoot  -38.3508 -0.992209 -3.02646
RightToes  3.49245e-010 0 -3.6325e-017
Spine  -30.1794 -3.83847 4.98723
Spine1  -175.59 16.939 0.956997
HEad  -30.0465 7.31448 -9.85605
LeftShoulder1  -0.418047 -0.970111 20.3481
LeftArm  -84.808 -42.6076 3.95554
LeftForeArm  -21.4603 -43.6462 -11.9491
LeftHand  -0.329866 11.52 -4.83568
RightShoulder  -0.248052 -0.513653 -19.3683
RightArm  -73.3033 27.1484 -4.15295
RightForeArm  -40.684 51.5904 16.6231
RightHand  -0.477892 9.84298 -4.0464
LeftUpLeg  90.2971 -23.9932 30.0622
LeftLeg  66.1211 -5.70431 -13.2191
LeftFoot  -31.9961 0.587019 2.154
LeftToes  -5.36635e-011 -6.70219e-011 5.24975e-011
415
root  24.6587 25.9496 -2.82883 -84.8851 67.6385 32.8013
RightUpLeg  74.4108 54.9257 -39.8839
RightLeg  69.3139 6.99099 19.0975
RightFoot  -39.674 -0.24373 0.111134
RightToes  3.49245e-010 0 -3.6325e-017
Spine  -26.4211 2.3034 -6.48879
Spine1  178.583 7.32771 7.62303
HEad  -32.4853 6.65609 -10.7249
LeftShoulder1  -0.426668 -0.810394 20.9376
LeftArm  -86.2749 -43.1436 5.37535
LeftForeArm  -22.0634 -43.5799 -11.9537
LeftHand  -0.292278 11.0142 -4.57389
RightShoulder  -0.192345 -1.07474 -19.0263
RightArm  -74.3204 27.2126 -4.3971
RightForeArm  -41.2296 50.1887 15.8593
RightHand  -0.421666 11.3924 -3.32279
LeftUpLeg  87.3901 -22.8328 29.8352
LeftLeg  68.524 -5.28793 -13.8908
LeftFoot  -33.9242 0.425394 1.10101
LeftToes  -5.36635e-011 -6.70219e-011 5.24975e-011
